<svg id="Layer_2" height="512" viewBox="0 0 512 512" width="512" xmlns="http://www.w3.org/2000/svg" xmlns:xlink="http://www.w3.org/1999/xlink" data-name="Layer 2"><linearGradient id="linear-gradient" gradientUnits="userSpaceOnUse" x1="43.93" x2="468.07" y1="43.93" y2="468.07"><stop offset="0" stop-color="#2492ff"/><stop offset="1" stop-color="#0043ae"/></linearGradient><linearGradient id="linear-gradient-2" gradientUnits="userSpaceOnUse" x1="140.49" x2="454.18" y1="168.27" y2="481.96"><stop offset="0" stop-opacity=".5"/><stop offset="1" stop-opacity="0"/></linearGradient><g id="Icon"><g id="_16" data-name="16"><rect id="Background" fill="url(#linear-gradient)" height="512" rx="150" width="512"/><path d="m333.83 112.53-99.57.22-19.13-19.13-69.21 329.15 89.23 89.23h126.86c82.84 0 150-67.16 150-150v-71.29z" fill="url(#linear-gradient-2)"/><path d="m366.08 214.25c0 36.91-8.32 66.39-24.94 88.44-16.63 22.05-39.08 33.07-67.35 33.07-21.83 0-39.77-7.98-53.83-23.95v110.96h-74.05v-329.15h69.21l2.2 21.97c14.21-17.58 32.88-26.37 56.03-26.37 29.3 0 52.08 10.8 68.33 32.41 16.26 21.61 24.39 51.31 24.39 89.1v3.52zm-74.05-4.61c0-42.19-12.3-63.28-36.91-63.28-17.58 0-29.3 6.3-35.16 18.9v93.6c6.44 13.18 18.31 19.78 35.6 19.78 23.58 0 35.74-20.36 36.47-61.08v-7.91z" fill="#fff"/></g></g></svg>